<?xml version="1.0" encoding="UTF-8" standalone="no"?>
<!-- Created with Inkscape (http://www.inkscape.org/) -->

<svg
   width="180.62222mm"
   height="180.62222mm"
   viewBox="0 0 180.62222 180.62222"
   version="1.1"
   id="svg1"
   xml:space="preserve"
   inkscape:version="1.4.3 (0d15f75, 2025-12-25)"
   sodipodi:docname="icon.svg"
   xmlns:inkscape="http://www.inkscape.org/namespaces/inkscape"
   xmlns:sodipodi="http://sodipodi.sourceforge.net/DTD/sodipodi-0.dtd"
   xmlns="http://www.w3.org/2000/svg"
   xmlns:svg="http://www.w3.org/2000/svg"><sodipodi:namedview
     id="namedview1"
     pagecolor="#ffffff"
     bordercolor="#000000"
     borderopacity="0.25"
     inkscape:showpageshadow="2"
     inkscape:pageopacity="0.0"
     inkscape:pagecheckerboard="0"
     inkscape:deskcolor="#d1d1d1"
     inkscape:document-units="mm"
     inkscape:zoom="1"
     inkscape:cx="274"
     inkscape:cy="312.5"
     inkscape:window-width="1854"
     inkscape:window-height="1011"
     inkscape:window-x="66"
     inkscape:window-y="32"
     inkscape:window-maximized="1"
     inkscape:current-layer="layer1"
     showgrid="false" /><defs
     id="defs1" /><g
     inkscape:label="Layer 1"
     inkscape:groupmode="layer"
     id="layer1"
     transform="translate(-14.728472,-58.12014)"><path
       style="fill:#ff0000;stroke-width:0.26508"
       d="m 103.10999,85.365505 c -26.914392,0.05329 -53.505006,1.086633 -65.555944,3.071646 -5.407978,0.890794 -9.417788,2.875897 -13.036081,6.452838 -3.437814,3.398526 -5.036399,6.182881 -6.190219,10.782291 -4.010646,15.98744 -4.728662,54.10741 -1.458597,77.46348 1.220027,8.71392 3.10918,13.67395 6.644086,17.44493 2.841588,3.03137 6.20948,5.22352 10.056122,6.54637 4.14156,1.42427 17.258783,2.68932 35.18995,3.39308 3.943814,0.15478 7.947383,0.31437 8.896819,0.3545 4.602673,0.19454 41.259704,0.1332 53.115334,-0.0889 13.88432,-0.26008 19.9196,-0.50952 29.21344,-1.20613 11.90121,-0.89205 17.21789,-1.987 21.37892,-4.40283 2.24982,-1.30621 6.75375,-5.75939 8.07986,-7.98918 3.87998,-6.52397 5.86455,-23.18914 5.86136,-49.21405 -0.003,-25.57562 -1.9842,-41.96114 -5.86136,-48.473528 -1.19167,-2.001626 -5.51175,-6.379867 -7.62807,-7.731311 -2.80772,-1.792964 -6.1303,-2.859047 -11.20764,-3.595129 -13.3454,-1.934728 -40.58358,-2.861386 -67.49798,-2.808097 z"
       id="path9" /><path
       style="fill:#ffffff;stroke-width:0.964583"
       d="m 112.75717,175.44402 c -1.2085,-0.61197 -1.97736,-1.36805 -2.50243,-2.46085 -0.45742,-0.95202 -0.481,-2.25289 -0.48645,-26.83452 -0.005,-22.76011 0.0422,-25.94428 0.39731,-26.76058 0.51594,-1.18611 1.2955,-1.98231 2.5421,-2.5963 0.91509,-0.45071 1.46266,-0.48281 7.05066,-0.41339 5.94741,0.0739 6.07563,0.0866 6.99228,0.69039 1.30277,0.85821 2.2214,2.32632 2.41048,3.85235 0.0876,0.70705 0.12371,12.5503 0.0802,26.31836 l -0.079,25.03279 -0.7812,1.21148 c -0.51301,0.79557 -1.1752,1.41135 -1.92885,1.79369 -1.10553,0.56084 -1.36363,0.58184 -7.03078,0.57219 -4.84692,-0.009 -6.02072,-0.0797 -6.66433,-0.40561 z"
       id="path6" /><path
       style="fill:#ffffff;stroke-width:0.964583"
       d="m 83.07165,175.51596 c -1.037623,-0.44804 -2.188929,-1.57906 -2.705549,-2.65785 -0.375001,-0.78307 -0.426756,-3.52762 -0.490435,-26.00827 -0.05029,-17.75622 0.01401,-25.52702 0.219067,-26.47587 0.200033,-0.92555 0.568079,-1.63842 1.184007,-2.29329 1.574875,-1.67446 1.947796,-1.75207 8.41772,-1.75207 6.250644,0 6.913668,0.12364 8.25259,1.53897 1.480159,1.56462 1.397932,-0.10417 1.393272,28.2767 l -0.0043,26.08851 -0.581615,0.97674 c -0.319888,0.5372 -1.031636,1.32511 -1.581663,1.7509 l -1.000048,0.77416 -6.160933,0.0594 c -4.717786,0.0455 -6.343922,-0.0197 -6.94213,-0.27798 z"
       id="path4" /></g></svg>
